<svg xmlns="http://www.w3.org/2000/svg" viewBox="0 0 815 560" font-family="sans-serif" font-size="30" fill="#4b5563">
<rect x="118.1" y="468.5" width="15.1" height="1.5" fill="#3776ab"/>
<rect x="135.2" y="468.5" width="15.1" height="1.5" fill="#3776ab"/>
<rect x="152.4" y="464.4" width="15.1" height="5.6" fill="#3776ab"/>
<rect x="169.5" y="456.2" width="15.1" height="13.8" fill="#3776ab"/>
<rect x="186.6" y="434.6" width="15.1" height="35.4" fill="#3776ab"/>
<rect x="203.8" y="389.0" width="15.1" height="81.0" fill="#3776ab"/>
<rect x="220.9" y="280.4" width="15.1" height="189.6" fill="#3776ab"/>
<rect x="238.0" y="156.9" width="15.1" height="313.1" fill="#3776ab"/>
<rect x="255.1" y="77.9" width="15.1" height="392.1" fill="#3776ab"/>
<rect x="272.2" y="89.7" width="15.1" height="380.3" fill="#3776ab"/>
<rect x="289.4" y="111.8" width="15.1" height="358.2" fill="#3776ab"/>
<rect x="306.5" y="179.9" width="15.1" height="290.1" fill="#3776ab"/>
<rect x="323.6" y="285.5" width="15.1" height="184.5" fill="#3776ab"/>
<rect x="340.8" y="337.3" width="15.1" height="132.7" fill="#3776ab"/>
<rect x="357.9" y="386.5" width="15.1" height="83.5" fill="#3776ab"/>
<rect x="375.0" y="434.1" width="15.1" height="35.9" fill="#3776ab"/>
<rect x="392.1" y="440.8" width="15.1" height="29.2" fill="#3776ab"/>
<rect x="409.2" y="460.8" width="15.1" height="9.2" fill="#3776ab"/>
<rect x="426.4" y="464.4" width="15.1" height="5.6" fill="#3776ab"/>
<rect x="443.5" y="465.9" width="15.1" height="4.1" fill="#3776ab"/>
<rect x="460.6" y="466.9" width="15.1" height="3.1" fill="#3776ab"/>
<rect x="477.8" y="467.4" width="15.1" height="2.6" fill="#3776ab"/>
<rect x="494.9" y="469.0" width="15.1" height="1.0" fill="#3776ab"/>
<rect x="512.0" y="467.9" width="15.1" height="2.1" fill="#3776ab"/>
<rect x="529.1" y="469.5" width="15.1" height="0.5" fill="#3776ab"/>
<rect x="546.2" y="468.5" width="15.1" height="1.5" fill="#3776ab"/>
<rect x="563.4" y="467.9" width="15.1" height="2.1" fill="#3776ab"/>
<rect x="580.5" y="469.0" width="15.1" height="1.0" fill="#3776ab"/>
<rect x="631.9" y="469.0" width="15.1" height="1.0" fill="#3776ab"/>
<line x1="94" y1="470.0" x2="100" y2="470.0" stroke="#4b5563" stroke-width="1.5"/>
<text x="90" y="479.0" text-anchor="end">0</text>
<line x1="94" y1="367.5" x2="100" y2="367.5" stroke="#4b5563" stroke-width="1.5"/>
<text x="90" y="376.5" text-anchor="end">200</text>
<line x1="94" y1="265.0" x2="100" y2="265.0" stroke="#4b5563" stroke-width="1.5"/>
<text x="90" y="274.0" text-anchor="end">400</text>
<line x1="94" y1="162.5" x2="100" y2="162.5" stroke="#4b5563" stroke-width="1.5"/>
<text x="90" y="171.5" text-anchor="end">600</text>
<line x1="94" y1="60.0" x2="100" y2="60.0" stroke="#4b5563" stroke-width="1.5"/>
<text x="90" y="69.0" text-anchor="end">800</text>
<line x1="100.0" y1="470" x2="100.0" y2="476" stroke="#4b5563" stroke-width="1.5"/>
<text x="100.0" y="504" text-anchor="middle">0.0</text>
<line x1="237.0" y1="470" x2="237.0" y2="476" stroke="#4b5563" stroke-width="1.5"/>
<text x="237.0" y="504" text-anchor="middle">0.2</text>
<line x1="374.0" y1="470" x2="374.0" y2="476" stroke="#4b5563" stroke-width="1.5"/>
<text x="374.0" y="504" text-anchor="middle">0.4</text>
<line x1="511.0" y1="470" x2="511.0" y2="476" stroke="#4b5563" stroke-width="1.5"/>
<text x="511.0" y="504" text-anchor="middle">0.6</text>
<line x1="648.0" y1="470" x2="648.0" y2="476" stroke="#4b5563" stroke-width="1.5"/>
<text x="648.0" y="504" text-anchor="middle">0.8</text>
<line x1="785.0" y1="470" x2="785.0" y2="476" stroke="#4b5563" stroke-width="1.5"/>
<text x="785.0" y="504" text-anchor="middle">1.0</text>
<line x1="647.9" y1="54" x2="647.9" y2="470" stroke="#c2410c" stroke-width="2" stroke-dasharray="6 5"/>
<text x="647.9" y="44" fill="#c2410c" text-anchor="middle" font-weight="bold">flame</text>
<path d="M100,60 V470 H785" fill="none" stroke="#4b5563" stroke-width="1.5"/>
<text x="442.5" y="552" text-anchor="middle" font-weight="bold">Cosine similarity to "fire"</text>
</svg>
